<?xml version="1.0" encoding="UTF-8"?>
<svg width="17px" height="17px" viewBox="0 0 17 17" version="1.1" xmlns="http://www.w3.org/2000/svg" xmlns:xlink="http://www.w3.org/1999/xlink">
    <!-- Generator: Sketch 64 (93537) - https://sketch.com -->
    <title>48px_small-remove@1x</title>
    <desc>Created with Sketch.</desc>
    <g id="Home-page" stroke="none" stroke-width="1" fill="none" fill-rule="evenodd">
        <g id="All-Feature" transform="translate(-5020.000000, -1354.000000)" fill="#7787A2" fill-rule="nonzero" stroke="#7787A2" stroke-width="0.5">
            <g id="48px_small-remove" transform="translate(5020.000000, 1354.000000)">
                <path d="M15.7532632,1.08884211 C15.4244212,0.76009942 14.8913683,0.76009942 14.5625263,1.08884211 L8.42105263,7.23031579 L2.27957895,1.08884211 C2.06814781,0.869931297 1.7550502,0.78213676 1.46062541,0.859202394 C1.16620063,0.936268029 0.936268029,1.16620063 0.859202394,1.46062541 C0.78213676,1.7550502 0.869931297,2.06814781 1.08884211,2.27957895 L7.23031579,8.42105263 L1.08884211,14.5625263 C0.869931297,14.7739574 0.78213676,15.0870551 0.859202394,15.3814799 C0.936268029,15.6759046 1.16620063,15.9058372 1.46062541,15.9829029 C1.7550502,16.0599685 2.06814781,15.972174 2.27957895,15.7532632 L8.42105263,9.61178947 L14.5625263,15.7532632 C14.7201138,15.9117551 14.9343919,16.0008715 15.1578947,16.0008715 C15.3813976,16.0008715 15.5956757,15.9117551 15.7532632,15.7532632 C16.0820058,15.4244212 16.0820058,14.8913683 15.7532632,14.5625263 L9.61178947,8.42105263 L15.7532632,2.27957895 C16.0820058,1.95073697 16.0820058,1.41768409 15.7532632,1.08884211 Z" id="Path"></path>
            </g>
        </g>
    </g>
</svg>