<svg width="16" height="16" viewBox="0 0 16 16" fill="none" xmlns="http://www.w3.org/2000/svg">
<path fill-rule="evenodd" clip-rule="evenodd" d="M12.7843 12.0886L12.8536 12.1464L15.8536 15.1464C16.0488 15.3417 16.0488 15.6583 15.8536 15.8536C15.68 16.0271 15.4106 16.0464 15.2157 15.9114L15.1464 15.8536L12.1464 12.8536C11.9512 12.6583 11.9512 12.3417 12.1464 12.1464C12.32 11.9729 12.5894 11.9536 12.7843 12.0886ZM6.5 0C10.0899 0 13 2.91015 13 6.5C13 10.0899 10.0899 13 6.5 13C2.91015 13 0 10.0899 0 6.5C0 2.91015 2.91015 0 6.5 0ZM6.5 1C3.46243 1 1 3.46243 1 6.5C1 9.53757 3.46243 12 6.5 12C9.53757 12 12 9.53757 12 6.5C12 3.46243 9.53757 1 6.5 1Z" fill="#5E6A6E"/>
</svg>
